<svg width="74.8" height="17" viewBox="0 0 66 15" fill="none" xmlns="http://www.w3.org/2000/svg">
<path fill-rule="evenodd" clip-rule="evenodd" d="M41.88 1.115L39.28 2.201V4.401H37.47V6.756H39.247V11.326C39.247 13.221 40.444 14.46 42.36 14.46C43.138 14.46 43.617 14.32 43.856 14.22V11.924C43.716 11.964 43.357 12.004 43.038 12.004C42.28 12.004 41.881 11.724 41.881 10.866V6.756H43.856V4.4H41.881V1.115H41.88Z" fill="black"/>
<mask id="mask0_3_23" style="mask-type:alpha" maskUnits="userSpaceOnUse" x="0" y="4" width="17" height="11">
<path d="M0 4.406H16.104V14.224H0V4.406Z" fill="white"/>
</mask>
<g mask="url(#mask0_3_23)">
<path fill-rule="evenodd" clip-rule="evenodd" d="M13.31 4.406L11.494 10.712L9.359 4.406H6.745L4.61 10.712L2.794 4.406H0L3.133 14.224H5.942L8.052 7.608L10.172 14.224H12.971L16.104 4.406H13.31Z" fill="black"/>
</g>
<mask id="mask1_3_23" style="mask-type:alpha" maskUnits="userSpaceOnUse" x="55" y="0" width="11" height="15">
<path d="M55.159 0.0970001H65.256V14.463H55.159V0.0970001Z" fill="white"/>
</mask>
<g mask="url(#mask1_3_23)">
<path fill-rule="evenodd" clip-rule="evenodd" d="M60.22 12.084C58.796 12.084 57.634 11.046 57.634 9.29C57.634 7.534 58.837 6.536 60.22 6.536C61.604 6.536 62.682 7.514 62.682 9.27C62.682 11.046 61.604 12.084 60.22 12.084V12.084ZM62.642 1.115V4.971C61.9701 4.51262 61.1884 4.24133 60.377 4.185C60.328 4.181 60.279 4.176 60.229 4.173L60.161 4.169C59.9426 4.15646 59.7235 4.16181 59.506 4.185C57.193 4.37 55.646 6.032 55.256 8.21C55.199 8.53 55.168 8.863 55.162 9.202L55.159 9.301V9.315C55.159 9.4 55.162 9.484 55.165 9.567V9.575C55.171 9.718 55.182 9.861 55.197 10.001C55.469 12.52 57.236 14.463 59.942 14.463C61.024 14.463 61.956 14.151 62.702 13.617V14.219H62.802L65.256 14.242V0.0970001L62.642 1.115Z" fill="black"/>
</g>
<path fill-rule="evenodd" clip-rule="evenodd" d="M47.297 8.17C47.631 7.205 48.417 6.53 49.507 6.53C50.6 6.53 51.385 7.205 51.719 8.17H47.297V8.17ZM54.191 8.198C53.774 5.892 52.057 4.167 49.508 4.167C46.958 4.167 45.242 5.892 44.825 8.197L44.823 8.21C44.758 8.57439 44.7255 8.94385 44.726 9.314V9.315C44.726 9.548 44.739 9.776 44.763 10V10.001C45.035 12.519 46.803 14.462 49.508 14.462C51.671 14.462 53.234 13.219 53.913 11.434L51.561 10.934C51.171 11.775 50.454 12.334 49.508 12.334C48.244 12.334 47.39 11.337 47.174 10H54.253C54.3167 9.40346 54.2965 8.80093 54.193 8.21L54.191 8.198V8.198Z" fill="black"/>
<mask id="mask2_3_23" style="mask-type:alpha" maskUnits="userSpaceOnUse" x="16" y="4" width="11" height="11">
<path d="M16.094 4.166H26.191V14.463H16.094V4.166Z" fill="white"/>
</mask>
<g mask="url(#mask2_3_23)">
<path fill-rule="evenodd" clip-rule="evenodd" d="M21.155 12.086C19.731 12.086 18.569 11.049 18.569 9.293C18.569 7.537 19.771 6.539 21.155 6.539C22.538 6.539 23.617 7.517 23.617 9.273C23.617 11.049 22.538 12.086 21.155 12.086V12.086ZM23.627 5.007C22.955 4.529 22.134 4.231 21.188 4.177H21.164L21.096 4.172C20.9181 4.16214 20.7397 4.16414 20.562 4.178C18.182 4.314 16.588 5.995 16.192 8.21C16.132 8.536 16.102 8.873 16.096 9.22L16.094 9.302V9.316C16.094 9.4 16.096 9.483 16.1 9.566V9.581C16.106 9.723 16.117 9.864 16.132 10.002C16.403 12.52 18.17 14.463 20.876 14.463C21.954 14.463 22.882 14.154 23.626 13.624V14.219H26.191V4.401H23.628V5.007H23.627Z" fill="black"/>
</g>
<path fill-rule="evenodd" clip-rule="evenodd" d="M33.16 4.141C32.125 4.141 30.976 4.583 30.366 5.556V4.401H27.752V14.219H30.406V8.57C30.406 7.433 31.085 6.535 32.242 6.535C33.519 6.535 34.058 7.393 34.058 8.491V14.218H36.712V8.033C36.712 5.877 35.595 4.141 33.16 4.141" fill="black"/>
</svg>
